<svg width="200" height="200" viewBox="0 0 100 100" fill="none" xmlns="http://www.w3.org/2000/svg">
  <circle cx="50" cy="50" r="42" stroke="#ff4040" stroke-width="2"/>
  <rect x="32" y="38" width="36" height="32" rx="2" stroke="#ff4040" stroke-width="2"/>
  <line x1="40" y1="34" x2="40" y2="42" stroke="#ff4040" stroke-width="2" stroke-linecap="round"/>
  <line x1="50" y1="34" x2="50" y2="42" stroke="#ff4040" stroke-width="2" stroke-linecap="round"/>
  <line x1="60" y1="34" x2="60" y2="42" stroke="#ff4040" stroke-width="2" stroke-linecap="round"/>
  <rect x="32" y="38" width="36" height="8" fill="#ff4040" fill-opacity="0.15"/>
  <circle cx="40" cy="52" r="1.5" fill="#ff4040"/>
  <circle cx="45" cy="52" r="1.5" fill="#ff4040"/>
  <circle cx="50" cy="52" r="1.5" fill="#ff4040"/>
  <circle cx="55" cy="52" r="1.5" fill="#ff4040"/>
  <circle cx="60" cy="52" r="1.5" fill="#ff4040"/>
  <circle cx="37" cy="58" r="1.5" fill="#ff4040"/>
  <circle cx="42" cy="58" r="1.5" fill="#ff4040"/>
  <circle cx="47" cy="58" r="1.5" fill="#ff4040"/>
  <circle cx="52" cy="58" r="1.5" fill="#ff4040"/>
  <circle cx="57" cy="58" r="1.5" fill="#ff4040"/>
  <circle cx="62" cy="58" r="1.5" fill="#ff4040"/>
  <circle cx="40" cy="64" r="1.5" fill="#ff4040"/>
  <circle cx="45" cy="64" r="1.5" fill="#ff4040"/>
  <circle cx="50" cy="64" r="1.5" fill="#ff4040"/>
  <circle cx="55" cy="64" r="1.5" fill="#ff4040"/>
  <circle cx="60" cy="64" r="1.5" fill="#ff4040"/>
</svg>
  <circle cx="50" cy="52" r="1.5" fill="#e05a3a"/>
  <circle cx="55" cy="52" r="1.5" fill="#e05a3a"/>
  <circle cx="60" cy="52" r="1.5" fill="#e05a3a"/>
  <circle cx="40" cy="58" r="1.5" fill="#e05a3a"/>
  <circle cx="45" cy="58" r="1.5" fill="#e05a3a"/>
  <circle cx="50" cy="58" r="1.5" fill="#e05a3a"/>
  <circle cx="55" cy="58" r="1.5" fill="#e05a3a"/>
  <circle cx="60" cy="58" r="1.5" fill="#e05a3a"/>
  <circle cx="40" cy="64" r="1.5" fill="#e05a3a"/>
  <circle cx="45" cy="64" r="1.5" fill="#e05a3a"/>
  <circle cx="50" cy="64" r="1.5" fill="#e05a3a"/>
  <circle cx="55" cy="64" r="1.5" fill="#e05a3a"/>
  <circle cx="60" cy="64" r="1.5" fill="#e05a3a"/>
</svg>
