<?xml version="1.0" encoding="UTF-8"?><svg id="Layer_2" xmlns="http://www.w3.org/2000/svg" xmlns:xlink="http://www.w3.org/1999/xlink" viewBox="0 0 681.55 178.44"><defs><style>.cls-1{fill:url(#Cognisco_Arrow);}.cls-2{fill:#333;}.cls-3{fill:url(#Cognisco_Logo_Swatch);}</style><linearGradient id="Cognisco_Logo_Swatch" x1="0" y1="89.22" x2="138.71" y2="89.22" gradientUnits="userSpaceOnUse"><stop offset="0" stop-color="#1bcfbb"/><stop offset=".14" stop-color="#16c5c2"/><stop offset=".39" stop-color="#0bacd7"/><stop offset=".53" stop-color="#039ae7"/><stop offset=".99" stop-color="#4c35e0"/></linearGradient><linearGradient id="Cognisco_Arrow" x1="128.6" y1="90.03" x2="191.29" y2="90.03" gradientUnits="userSpaceOnUse"><stop offset="0" stop-color="#3358e2"/><stop offset=".99" stop-color="#4c35e0"/></linearGradient></defs><g id="Layer_1-2"><g><path class="cls-2" d="m223.55,87.9c0-22.8,14.24-40.03,37.04-40.03,8.77,0,15.99,2.27,21.25,6.29,6.19,4.85,9.91,11.76,10.83,19.81h-14.24c-1.34-8.25-7.84-14.03-17.95-14.03-14.65,0-22.39,11.97-22.39,27.96s8.77,27.76,22.49,27.76c11.45,0,17.75-7.64,18.57-16.92h14.34c-.31,7.64-3.92,15.37-9.29,20.53-5.57,5.57-13.41,8.46-23.73,8.46-22.18,0-36.94-16.82-36.94-39.83Z"/><path class="cls-2" d="m300.72,98.63c0-16.41,11.04-29.1,28.17-29.1s27.96,12.69,27.96,29.1-10.83,29.1-27.96,29.1-28.17-12.79-28.17-29.1Zm42.82,0c0-11.14-5.16-19.4-14.75-19.4s-14.75,8.25-14.75,19.4,5.06,19.19,14.75,19.19,14.75-8.15,14.75-19.19Z"/><path class="cls-2" d="m365.31,128.86h12.59c.93,4.54,5.16,6.81,12.38,6.81,8.77,0,13.31-4.13,13.31-12.07v-1.34c0-2.99.1-5.78.21-7.64h-.31c-3.41,5.47-8.25,8.46-15.58,8.46-13.41,0-24.04-10.11-24.04-26.52s10.11-27.03,23.32-27.03c7.74,0,13,2.68,16.3,8.56h.21v-7.12h12.69v51.49c0,7.74-2.58,13.41-6.91,17.23-4.54,3.82-11.25,5.57-18.99,5.57-14.75,0-23.83-5.98-25.18-16.41Zm38.8-32.71c0-9.8-4.54-16.41-13.93-16.41-8.56,0-13.31,6.5-13.31,16.61s4.85,16.61,13.41,16.61c10.01,0,13.83-7.22,13.83-16.82Z"/><path class="cls-2" d="m441.25,79.02h.31c3.61-6.09,9.39-9.49,17.13-9.49,11.87,0,18.98,7.33,18.98,19.19v37.35h-13.1v-35.18c0-6.5-3.82-10.52-10.52-10.52-7.33,0-12.48,5.57-12.48,13.41v32.29h-13.1v-55.1h12.79v8.05Z"/><path class="cls-2" d="m489.02,49.31h13.41v12.69h-13.41v-12.69Zm.21,21.67h13.1v55.1h-13.1v-55.1Z"/><path class="cls-2" d="m510.69,109.15h12.59c1.03,6.6,6.09,9.39,13.1,9.39s10.63-3.1,10.63-7.53c0-5.47-5.57-6.5-14.24-8.15-10.32-2.06-20.12-4.44-20.12-16.92,0-10.42,8.87-16.41,21.77-16.41,14.65,0,21.98,6.6,23.32,16.2h-12.48c-.93-4.75-4.44-7.33-10.94-7.33-6.09,0-9.29,2.79-9.29,6.6,0,4.85,5.67,5.78,14.03,7.33,10.42,1.96,20.74,4.44,20.74,17.85,0,11.56-9.91,17.64-23.52,17.64-15.68,0-24.76-7.53-25.59-18.68Z"/><path class="cls-2" d="m566.71,98.63c0-16.41,10.83-29.1,27.76-29.1,14.03,0,22.91,7.95,24.87,19.81h-12.79c-1.24-5.98-5.37-9.8-11.97-9.8-9.6,0-14.55,7.95-14.55,19.09s4.95,18.88,14.55,18.88c7.22,0,11.56-4.23,12.28-11.45h12.79c-.83,12.79-10.21,21.67-24.97,21.67-17.02,0-27.96-12.79-27.96-29.1Z"/><path class="cls-2" d="m625.42,98.63c0-16.41,11.04-29.1,28.17-29.1s27.96,12.69,27.96,29.1-10.83,29.1-27.96,29.1-28.17-12.79-28.17-29.1Zm42.82,0c0-11.14-5.16-19.4-14.75-19.4s-14.75,8.25-14.75,19.4,5.06,19.19,14.75,19.19,14.75-8.15,14.75-19.19Z"/></g><path class="cls-3" d="m118.66,56.94l-18.37-18.37h0c-6.07-5.75-15.57-5.75-21.64,0h0s-40.08,40.08-40.08,40.08h0c-5.96,5.35-6.44,14.54-1.05,20.47l1.05,1.16,40.08,40.08,1.46,1.23c5.4,4.57,13.32,4.57,18.72,0l1.46-1.23,17.54-17.54,20.33,19.78-27.36,27.36h0c-11.97,11.3-30.68,11.3-42.65,0h0S8.97,110.79,8.97,110.79l-.55-.57c-11.44-11.78-11.2-30.6.55-42.09h0S68.14,8.97,68.14,8.97h0c11.48-11.75,30.3-11.99,42.09-.55l.57.55,27.92,27.92-20.05,20.05Z"/><polygon class="cls-1" points="129.15 67.43 148.63 47.95 191.29 89.47 148.65 132.11 128.6 112.06 151.19 89.47 129.15 67.43"/></g></svg>