<svg xmlns="http://www.w3.org/2000/svg" width="141" height="30" viewBox="0 0 141 30" fill="none"><path d="M42.4661 12.7334H38.1772V20.4026C38.1544 20.6568 38.1865 20.9127 38.2713 21.1541C38.3562 21.3955 38.492 21.6171 38.67 21.8047C39.0779 22.1269 39.5882 22.302 40.1141 22.3C40.8975 22.3434 41.6828 22.3434 42.4661 22.3V26.5942C39.0995 26.9636 36.7273 26.6572 35.3496 25.6749C33.9718 24.6927 33.2858 22.9352 33.2915 20.4026V12.7334V8.16634V4.44298L38.1772 3.00317V8.16634H42.4661V12.7334Z" fill="#173660"></path><path d="M50.672 11.3358C51.0741 10.2172 51.8745 9.27489 52.9289 8.67864C53.9976 8.08694 55.2095 7.78265 56.4397 7.79712V13.103C55.0384 12.9122 53.6138 13.2274 52.436 13.9887C51.26 14.7499 50.672 16.0092 50.672 17.7667V26.5818H45.7734V8.16652H50.672V11.3358Z" fill="#173660"></path><path d="M73.0119 8.16649H77.9105V26.5944H73.0119V24.42C71.5448 26.211 69.4825 27.1079 66.8249 27.1107C65.5948 27.1205 64.377 26.8737 63.2536 26.3871C62.1303 25.9004 61.1277 25.1852 60.3136 24.2898C58.5072 22.4234 57.5316 19.9408 57.5984 17.3804C57.5319 14.8189 58.5074 12.335 60.3136 10.4668C61.1286 9.57286 62.1315 8.85888 63.2547 8.37301C64.3779 7.88713 65.5953 7.64065 66.8249 7.65017C69.4853 7.65017 71.5477 8.54708 73.0119 10.3409V8.16649ZM63.9887 21.1206C65.0067 22.0558 66.3551 22.577 67.7566 22.577C69.1582 22.577 70.5066 22.0558 71.5246 21.1206C72.0254 20.6303 72.4169 20.0453 72.675 19.4019C72.9331 18.7584 73.0522 18.0704 73.0249 17.3804C73.0522 16.6905 72.9331 16.0024 72.675 15.359C72.4169 14.7156 72.0254 14.1306 71.5246 13.6403C70.5066 12.705 69.1582 12.1838 67.7566 12.1838C66.3551 12.1838 65.0067 12.705 63.9887 13.6403C63.4949 14.1345 63.1094 14.7207 62.8552 15.3635C62.6011 16.0063 62.4837 16.6924 62.51 17.3804C62.4837 18.0685 62.6011 18.7546 62.8552 19.3974C63.1094 20.0402 63.4949 20.6263 63.9887 21.1206Z" fill="#173660"></path><path d="M92.3169 7.65019C93.2719 7.62251 94.2223 7.78853 95.1075 8.13764C95.9926 8.48674 96.7931 9.01126 97.4576 9.67767C98.8095 11.0293 99.4868 12.8959 99.4897 15.2774V26.6112H94.5911V15.8693C94.5911 14.6408 94.2496 13.7005 93.5664 13.0484C93.2018 12.7159 92.772 12.4579 92.3025 12.2899C91.8331 12.1219 91.3337 12.0472 90.8339 12.0704C90.2751 12.0462 89.7172 12.1357 89.196 12.333C88.6749 12.5304 88.2019 12.8312 87.8074 13.2163C87.0465 13.9775 86.666 15.1193 86.666 16.6417V26.5944H81.7588V8.1665H86.6574V10.2276C87.8478 8.51211 89.7343 7.65298 92.3169 7.65019Z" fill="#173660"></path><path d="M107.535 13.3968C107.535 13.8921 107.868 14.2909 108.539 14.5973C109.327 14.942 110.148 15.2133 110.99 15.4075C111.968 15.6471 112.931 15.9428 113.874 16.2932C114.846 16.6571 115.695 17.2763 116.325 18.0814C117.017 18.9838 117.371 20.0886 117.328 21.2129C117.371 22.0606 117.193 22.905 116.812 23.6686C116.43 24.4322 115.857 25.0904 115.145 25.5827C113.544 26.6436 111.635 27.179 109.697 27.1107C105.803 27.1107 103.146 25.6485 101.725 22.7241L105.979 20.4027C106.532 21.9979 107.772 22.7968 109.697 22.7996C111.444 22.7996 112.317 22.2707 112.317 21.2129C112.317 20.7218 111.984 20.323 111.31 20.0165C110.522 19.6661 109.703 19.3851 108.863 19.177C107.884 18.9264 106.921 18.6194 105.979 18.2577C105.018 17.8911 104.172 17.2861 103.528 16.5031C102.838 15.6492 102.483 14.5858 102.524 13.5017C102.495 12.6825 102.666 11.8681 103.026 11.1263C103.385 10.3845 103.922 9.73675 104.591 9.23685C106.072 8.16057 107.887 7.60812 109.736 7.67111C111.207 7.65285 112.659 8.00116 113.952 8.68275C115.211 9.35401 116.249 10.3565 116.948 11.575L112.771 13.7872C112.528 13.2092 112.106 12.7183 111.565 12.3817C111.023 12.0451 110.387 11.8791 109.745 11.9066C109.189 11.891 108.641 12.0372 108.171 12.3264C107.979 12.4367 107.82 12.5932 107.709 12.7807C107.597 12.9682 107.538 13.1804 107.535 13.3968Z" fill="#173660"></path><path d="M128.41 4.84603C125.723 4.65013 124.382 5.69536 124.384 7.98171V8.16641H128.41V12.7335H124.384V26.5859H119.482V12.7335H119.425V8.16641H119.482V7.97751C119.482 5.36934 120.228 3.39082 121.721 2.04196C123.214 0.693102 125.444 0.105424 128.41 0.278929V4.84603Z" fill="#173660"></path><path d="M135.228 11.3358C135.633 10.2177 136.435 9.27583 137.489 8.67864C138.558 8.08694 139.77 7.78265 141 7.79712V13.103C139.599 12.9122 138.174 13.2274 136.997 13.9887C135.815 14.7499 135.225 16.0092 135.228 17.7667V26.5818H130.334V8.16652H135.228V11.3358Z" fill="#173660"></path><path d="M25.7426 21.4102L25.7772 17.3636C25.7772 17.3153 25.7577 17.269 25.723 17.2345C25.6883 17.1999 25.641 17.18 25.5913 17.1789H24.1386L8.16299 17.1285H3.96481C3.2458 17.1234 2.53912 17.3099 1.92171 17.6677C1.30429 18.0255 0.799811 18.5409 0.463181 19.1577C0.12655 19.7746 -0.0293258 20.4693 0.0125225 21.1662C0.0543708 21.8631 0.29234 22.5355 0.700521 23.1102C0.924609 23.4061 1.19441 23.6667 1.50038 23.8826C2.99633 24.974 8.5694 29.0416 9.9443 29.9987C9.9572 30.0004 9.9703 30.0004 9.98321 29.9987L9.16173 24.1219L5.80232 21.8006C5.77637 21.7846 5.7566 21.7608 5.74613 21.7328C5.73566 21.7048 5.73509 21.6742 5.7445 21.6458C5.75391 21.6174 5.77277 21.5929 5.79811 21.5761C5.82345 21.5593 5.85383 21.5511 5.88447 21.5529H8.80288H24.8001H25.5524C25.5961 21.554 25.639 21.5404 25.6736 21.5144C25.7083 21.4884 25.7327 21.4516 25.7426 21.4102Z" fill="#09A6E0"></path><path d="M0.0518827 8.6239L0 12.6705C0 12.7195 0.0200427 12.7664 0.0557191 12.8011C0.0913954 12.8357 0.139783 12.8552 0.190237 12.8552H1.66025L17.6574 12.8846H21.8556C22.5753 12.8902 23.2828 12.7039 23.9009 12.3459C24.519 11.9879 25.024 11.472 25.3608 10.8544C25.6975 10.2368 25.8532 9.54135 25.8107 8.84379C25.7682 8.14622 25.5293 7.47338 25.1199 6.89864C24.8898 6.60185 24.6125 6.34254 24.2984 6.13046C22.8025 5.03906 17.2294 0.971492 15.8761 0.001823C15.8618 -0.000607668 15.8472 -0.000607668 15.8329 0.001823L16.6587 5.8786L20.0181 8.19993C20.0414 8.21762 20.0585 8.2419 20.0669 8.26943C20.0754 8.29695 20.0749 8.32634 20.0654 8.35355C20.0559 8.38075 20.0379 8.40442 20.0139 8.42127C19.99 8.43811 19.9612 8.44732 19.9316 8.44759H17.0175H1.04198H0.242119C0.193129 8.44755 0.146007 8.46585 0.110569 8.49869C0.0751312 8.53153 0.0541096 8.57638 0.0518827 8.6239Z" fill="#09A6E0"></path></svg>