<?xml version="1.0" encoding="utf-8"?>
<!-- Generator: Adobe Illustrator 26.0.1, SVG Export Plug-In . SVG Version: 6.00 Build 0)  -->
<svg version="1.1" id="Layer_1" xmlns="http://www.w3.org/2000/svg" xmlns:xlink="http://www.w3.org/1999/xlink" x="0px" y="0px"
	 width="290px" height="45px" viewBox="0 0 290 45" enable-background="new 0 0 290 45" xml:space="preserve">
<path opacity="0.3" fill="#FFFFFF" enable-background="new    " d="M251.3,35.4l8.1-10.8l-7.9-10.4h6.5l4.7,6.3l4.6-6.3h6.3
	l-7.8,10.3l8.3,10.9h-6.5l-5-6.8l-5,6.8H251.3z"/>
<path opacity="0.3" fill="#FFFFFF" enable-background="new    " d="M276.2,35.4V14.2h5.6v2.4c0.7-0.9,1.5-1.6,2.4-2.1
	c1-0.5,2-0.7,3.2-0.7c1.1,0,1.8,0.2,2.3,0.4v4.9c-0.4-0.2-0.9-0.3-1.4-0.4s-1-0.1-1.5-0.1c-1.1,0-2.1,0.3-3,0.8s-1.6,1.3-2.2,2.3
	v13.7C281.6,35.4,276.2,35.4,276.2,35.4z"/>
<path fill="#FFFFFF" d="M77.5,35.2V6.9L83,6v29.2H77.5z"/>
<path fill="#FFFFFF" d="M95.5,35.6c-1.6,0-3-0.4-4.3-1.1c-1.3-0.7-2.2-1.7-2.9-3c-0.7-1.3-1.1-2.7-1.1-4.3v-13h5.5v12.2
	c0,1.3,0.4,2.4,1.2,3.2c0.8,0.8,1.9,1.2,3.2,1.2c0.9,0,1.7-0.2,2.5-0.6c0.7-0.4,1.4-0.9,1.8-1.5V14.1h5.5v21h-5.5v-1.7
	C99.8,34.9,97.8,35.6,95.5,35.6z"/>
<path fill="#FFFFFF" d="M111.3,35.2v-21h5.5v1.6c1.5-1.3,3.3-2,5.5-2c1.4,0,2.6,0.3,3.7,0.8c1.1,0.6,2,1.3,2.7,2.3
	c0.9-1,1.9-1.8,3.1-2.3c1.2-0.5,2.5-0.8,3.9-0.8c1.6,0,2.9,0.4,4.1,1.1c1.2,0.7,2.1,1.7,2.8,2.9c0.7,1.3,1,2.7,1,4.3v13.1h-5.5V23
	c0-1.4-0.4-2.5-1.1-3.3c-0.7-0.8-1.7-1.2-2.9-1.2c-0.8,0-1.6,0.2-2.3,0.5s-1.3,0.9-1.8,1.6c0,0.2,0.1,0.5,0.1,0.7s0,0.5,0,0.8v13.1
	h-5.5V23c0-1.4-0.4-2.5-1.1-3.3s-1.7-1.2-2.9-1.2c-0.8,0-1.6,0.2-2.2,0.5c-0.7,0.3-1.2,0.8-1.7,1.5v14.7H111.3z"/>
<path fill="#FFFFFF" d="M150.6,11.6c-0.9,0-1.6-0.3-2.2-0.9c-0.6-0.6-0.9-1.4-0.9-2.3s0.3-1.6,0.9-2.2c0.6-0.6,1.4-0.9,2.2-0.9
	c0.9,0,1.6,0.3,2.2,0.9c0.6,0.6,0.9,1.3,0.9,2.2s-0.3,1.6-0.9,2.3C152.2,11.3,151.5,11.6,150.6,11.6z M147.8,35.2v-21h5.5v21H147.8z
	"/>
<path fill="#FFFFFF" d="M157.7,35.2v-21h5.5v1.7c1.6-1.4,3.6-2.1,5.9-2.1c1.6,0,3,0.4,4.3,1.1c1.3,0.7,2.2,1.7,2.9,2.9
	c0.7,1.3,1.1,2.7,1.1,4.3v13.1H172V23c0-1.4-0.4-2.5-1.2-3.3s-1.9-1.2-3.2-1.2c-0.9,0-1.8,0.2-2.5,0.5c-0.7,0.4-1.3,0.9-1.8,1.6
	v14.6H157.7z"/>
<path fill="#FFFFFF" d="M191.9,35.6c-2.1,0-4-0.5-5.7-1.5s-3-2.3-4-3.9c-1-1.7-1.5-3.5-1.5-5.5s0.5-3.9,1.5-5.6s2.3-3,4-3.9
	c1.7-1,3.6-1.4,5.7-1.4c2.1,0,4,0.5,5.7,1.4c1.7,1,3,2.3,4,3.9c1,1.7,1.5,3.5,1.5,5.6c0,2-0.5,3.9-1.5,5.5c-1,1.7-2.3,3-4,3.9
	C195.9,35.1,194,35.6,191.9,35.6z M191.9,30.8c1.1,0,2.1-0.3,3-0.8c0.9-0.6,1.6-1.3,2.1-2.2c0.5-0.9,0.8-2,0.8-3.1s-0.3-2.2-0.8-3.1
	s-1.2-1.6-2.1-2.2c-0.9-0.5-1.9-0.8-2.9-0.8c-1.1,0-2.1,0.3-3,0.8s-1.6,1.3-2.1,2.2c-0.5,0.9-0.8,1.9-0.8,3.1s0.3,2.2,0.8,3.1
	s1.2,1.6,2.1,2.2C189.8,30.5,190.8,30.8,191.9,30.8z"/>
<path fill="#FFFFFF" d="M214.7,35.6c-1.6,0-3-0.4-4.3-1.1c-1.3-0.7-2.2-1.7-2.9-3s-1.1-2.7-1.1-4.3v-13h5.5v12.2
	c0,1.3,0.4,2.4,1.2,3.2c0.8,0.8,1.9,1.2,3.2,1.2c0.9,0,1.7-0.2,2.5-0.6c0.7-0.4,1.4-0.9,1.8-1.5V14.1h5.5v21h-5.5v-1.7
	C219,34.9,217,35.6,214.7,35.6z"/>
<path fill="#FFFFFF" d="M238.3,35.6c-1.9,0-3.7-0.2-5.3-0.7s-3.1-1.2-4.3-2.1l2.7-3.7c1.2,0.8,2.4,1.4,3.5,1.8s2.2,0.6,3.3,0.6
	c1.2,0,2.2-0.2,3-0.6c0.7-0.4,1.1-1,1.1-1.6c0-0.5-0.2-1-0.6-1.3c-0.4-0.3-1.1-0.6-2-0.7l-4-0.6c-2.1-0.3-3.7-1-4.7-2
	c-1.1-1-1.6-2.4-1.6-4.1c0-1.4,0.4-2.6,1.1-3.6c0.7-1,1.7-1.8,3-2.3s2.9-0.8,4.6-0.8c1.6,0,3.1,0.2,4.5,0.6c1.5,0.4,2.8,1.1,4.1,2
	L244,20c-1.2-0.7-2.3-1.3-3.3-1.6c-1.1-0.3-2.1-0.5-3.2-0.5c-1,0-1.8,0.2-2.4,0.6c-0.6,0.4-0.9,0.9-0.9,1.5s0.2,1,0.6,1.3
	c0.4,0.3,1.2,0.6,2.2,0.7l4,0.6c2.1,0.3,3.7,1,4.8,2s1.7,2.4,1.7,4c0,1.3-0.4,2.5-1.2,3.6c-0.8,1-1.9,1.9-3.3,2.5
	C241.7,35.3,240.1,35.6,238.3,35.6z"/>
<path fill="#FF3300" d="M54.4,9.6c-0.7,0-1.4,0.1-2.1,0.2C48.3,3.9,41.5,0,33.8,0S19.3,3.9,15.3,9.8c-0.7-0.1-1.4-0.2-2.1-0.2
	C6,9.6,0.3,15.4,0.3,22.5s5.8,12.9,12.9,12.9c0.7,0,1.4-0.1,2.1-0.2c4.1,5.9,10.9,9.8,18.5,9.8c7.7,0,14.5-3.9,18.5-9.8
	c0.7,0.1,1.4,0.2,2.1,0.2c7.1,0,12.9-5.8,12.9-12.9C67.3,15.4,61.5,9.6,54.4,9.6z M16.3,22.5c0-2.3,0.5-4.6,1.3-6.6l3.8,1.6
	c7.7,3.3,16.5,3.4,24.2,0.2l4.3-1.8c0.8,2,1.3,4.3,1.3,6.6s-0.5,4.6-1.3,6.6l-3.8-1.6C42.2,25.8,38,25,33.8,25
	c-4.1,0-8.1,0.8-11.9,2.4l-4.3,1.8C16.8,27.1,16.3,24.8,16.3,22.5z M33.8,5.1c5.4,0,10.3,2.5,13.5,6.4L43.6,13
	c-6.4,2.7-13.8,2.6-20.2-0.1l-3.2-1.4C23.4,7.6,28.3,5.1,33.8,5.1z M5.3,22.5c0-4.2,3.3-7.6,7.4-7.8c-0.9,2.4-1.4,5.1-1.4,7.8
	s0.5,5.4,1.4,7.8C8.6,30.1,5.3,26.7,5.3,22.5z M33.8,39.9c-5.4,0-10.3-2.5-13.5-6.4L24,32c6.4-2.7,13.8-2.6,20.2,0.1l3.2,1.4
	C44.1,37.4,39.2,39.9,33.8,39.9z M54.9,30.3c0.9-2.4,1.4-5.1,1.4-7.8s-0.5-5.4-1.4-7.8c4.1,0.2,7.4,3.7,7.4,7.8S59,30.1,54.9,30.3z"
	/>
</svg>
